# File created by Blade
# Date/Time:  Wed Jan 21 15:23:43 2015
# Frame Rate: 120.000 fps
#------------------------------------------------------
:FULLY-SPECIFIED
:DEGREES
1051
root 10.427387 28.385704 -18.456412 -161.579732 2.782003 -193.537920
Spine 3.347688 4.018336 -18.901772
Head -20.312881 -4.926640 4.595787
LeftShoulder -3.261369 -26.956231 0.949434
LeftArm -17.008120 46.559839 -82.388220
LeftForeArm 24.851831 -0.000000 50.051546
LeftHand 0.801701 -0.000000 -0.537333
LeftHandThumb1 -26.253704 0.000000 33.147579
RightShoulder -2.664674 -9.680419 6.200281
RightArm 19.086711 -33.426618 63.294195
RightForeArm -29.873008 0.000000 23.178401
RightHand 3.913491 -0.000000 5.924600
RightHandThumb1 -24.326973 -0.000000 -32.862282
LeftUpLeg -53.778230 13.913194 -21.473645
LeftLeg 70.651751 -0.000000 -0.000000
LeftFoot -53.633362 15.720337 -14.048632
LeftToeBase 25.855985 -0.000000 -0.000000
RightUpLeg -19.937336 -41.721612 -39.366385
RightLeg -4.288683 -0.000000 0.000000
RightFoot 6.488359 -25.472601 15.709967
RightToeBase 31.148177 -0.000000 -0.000000
1052
root 10.451331 28.415315 -18.463435 -161.654830 2.744087 -193.522174
Spine 3.380117 4.021443 -18.950098
Head -20.259362 -4.935288 4.664745
LeftShoulder -3.228841 -26.965054 0.975335
LeftArm -17.047387 46.483663 -82.424648
LeftForeArm 24.902767 -0.000000 49.977521
LeftHand 0.767377 -0.000000 -0.522474
LeftHandThumb1 -26.253704 0.000000 33.147579
RightShoulder -2.653852 -9.583387 6.253191
RightArm 18.936381 -33.437564 63.395767
RightForeArm -29.948869 -0.000000 23.200213
RightHand 3.874104 0.000000 5.909646
RightHandThumb1 -24.326973 -0.000000 -32.862282
LeftUpLeg -53.598175 13.944609 -21.378643
LeftLeg 70.469110 -0.000000 -0.000000
LeftFoot -53.571841 15.708577 -14.028150
LeftToeBase 25.930188 -0.000000 -0.000000
RightUpLeg -19.827564 -41.657986 -39.344313
RightLeg -4.272699 -0.000000 0.000000
RightFoot 6.395238 -25.389667 15.518246
RightToeBase 31.312476 -0.000000 -0.000000
1053
root 10.481158 28.448836 -18.467161 -161.740342 2.742076 -193.464593
Spine 3.436838 4.096559 -18.971685
Head -20.247403 -4.981372 4.744239
LeftShoulder -3.163156 -27.007225 0.969657
LeftArm -17.098862 46.511651 -82.450127
LeftForeArm 24.717536 -0.000000 49.895341
LeftHand 0.751904 -0.000000 -0.416601
LeftHandThumb1 -26.253704 0.000000 33.147579
RightShoulder -2.709317 -9.656855 6.343787
RightArm 19.102659 -33.453223 63.280900
RightForeArm -29.899202 -0.000000 23.151744
RightHand 3.870955 -0.000000 5.956860
RightHandThumb1 -24.326973 -0.000000 -32.862282
LeftUpLeg -53.425146 14.037992 -21.249412
LeftLeg 70.277309 -0.000000 -0.000000
LeftFoot -53.502402 15.694112 -13.999338
LeftToeBase 26.035710 -0.000000 -0.000000
RightUpLeg -19.746957 -41.494041 -39.277286
RightLeg -4.252839 -0.000000 0.000000
RightFoot 6.304870 -25.427578 15.462443
RightToeBase 31.163511 -0.000000 -0.000000
1054
root 10.509570 28.484828 -18.470882 -161.778593 2.725312 -193.437260
Spine 3.419347 4.096491 -19.019914
Head -20.180270 -5.000482 4.815812
LeftShoulder -3.226745 -26.902438 1.000020
LeftArm -16.886332 46.571564 -82.315814
LeftForeArm 24.587979 -0.000000 49.752989
LeftHand 0.812585 -0.000000 -0.522150
LeftHandThumb1 -26.253704 0.000000 33.147579
RightShoulder -2.715009 -9.628169 6.381974
RightArm 19.087223 -33.477797 63.322863
RightForeArm -29.854680 -0.000000 23.099348
RightHand 3.831636 -0.000000 5.997025
RightHandThumb1 -24.326973 -0.000000 -32.862282
LeftUpLeg -53.274828 14.071360 -21.149671
LeftLeg 70.060884 -0.000000 -0.000000
LeftFoot -53.409291 15.673525 -13.993565
LeftToeBase 26.050055 -0.000000 -0.000000
RightUpLeg -19.727675 -41.431545 -39.197089
RightLeg -4.200245 -0.000000 0.000000
RightFoot 6.217042 -25.379625 15.530067
RightToeBase 30.976461 -0.000000 -0.000000
1055
root 10.542948 28.524507 -18.471142 -161.847341 2.717843 -193.396450
Spine 3.452614 4.134638 -19.073688
Head -20.134621 -5.033574 4.918366
LeftShoulder -3.195454 -26.986644 1.052951
LeftArm -16.976602 46.525810 -82.414663
LeftForeArm 24.537085 -0.000000 49.618890
LeftHand 0.850283 -0.000000 -0.612471
LeftHandThumb1 -26.253704 0.000000 33.147579
RightShoulder -2.720803 -9.633535 6.464761
RightArm 19.126427 -33.483525 63.274311
RightForeArm -29.810038 -0.000000 23.108356
RightHand 3.902005 0.000000 5.927208
RightHandThumb1 -24.326973 -0.000000 -32.862282
LeftUpLeg -53.101465 14.134775 -21.028617
LeftLeg 69.829648 -0.000000 -0.000000
LeftFoot -53.301638 15.660251 -13.982088
LeftToeBase 26.094268 -0.000000 -0.000000
RightUpLeg -19.706836 -41.320777 -39.098769
RightLeg -4.135017 -0.000000 0.000000
RightFoot 6.123543 -25.389194 15.502510
RightToeBase 30.565241 -0.000000 -0.000000
1056
root 10.581697 28.563850 -18.479703 -161.914136 2.672505 -193.339235
Spine 3.450894 4.147681 -19.103963
Head -20.057467 -5.100651 5.024820
LeftShoulder -3.159351 -26.938092 1.079701
LeftArm -16.927971 46.516176 -82.385325
LeftForeArm 24.478860 -0.000000 49.491216
LeftHand 0.770393 -0.000000 -0.571407
LeftHandThumb1 -26.253704 0.000000 33.147579
RightShoulder -2.754012 -9.700026 6.524537
RightArm 19.177838 -33.463314 63.277694
RightForeArm -29.898006 -0.000000 23.130559
RightHand 3.739970 0.000000 6.004938
RightHandThumb1 -24.326973 -0.000000 -32.862282
LeftUpLeg -52.919921 14.206564 -20.877124
LeftLeg 69.616487 -0.000000 -0.000000
LeftFoot -53.196300 15.581576 -14.004816
LeftToeBase 26.161267 -0.000000 -0.000000
RightUpLeg -19.609770 -41.224950 -39.008672
RightLeg -4.096583 -0.000000 0.000000
RightFoot 5.997306 -25.374391 15.309968
RightToeBase 30.639015 -0.000000 -0.000000
1057
root 10.624269 28.609142 -18.483929 -161.995082 2.638438 -193.270870
Spine 3.500212 4.192605 -19.137313
Head -20.031180 -5.141109 5.157249
LeftShoulder -3.109555 -26.956397 1.092899
LeftArm -16.935274 46.529753 -82.400833
LeftForeArm 24.325956 -0.000000 49.349946
LeftHand 0.784416 0.000000 -0.437743
LeftHandThumb1 -26.253704 0.000000 33.147579
RightShoulder -2.765582 -9.632567 6.639297
RightArm 19.100959 -33.490739 63.260433
RightForeArm -29.845195 0.000000 23.164595
RightHand 3.860188 -0.000000 6.159573
RightHandThumb1 -24.326973 -0.000000 -32.862282
LeftUpLeg -52.714590 14.282280 -20.702645
LeftLeg 69.366027 -0.000000 -0.000000
LeftFoot -53.068899 15.546970 -13.977128
LeftToeBase 26.194005 -0.000000 -0.000000
RightUpLeg -19.539628 -41.101451 -38.896989
RightLeg -4.024503 -0.000000 0.000000
RightFoot 5.835529 -25.361747 15.284425
RightToeBase 30.672078 -0.000000 -0.000000
